<?xml version="1.0" encoding="UTF-8"?>
<svg id="Layer_1" data-name="Layer 1" xmlns="http://www.w3.org/2000/svg" viewBox="0 0 176.24 148.19">
  <path fill="#49C5B6" d="M176.24,84.79c-13.3-8.8-27.16-11.87-41.93-6.33-11.68,4.38-22.33,11.09-32.02,18.69-16.17,12.68-10.04,30.2-14.01,51.04-1.16-9.7-1.98-18.58-2.44-27.76-.49-9.7-3.56-16.68-11.08-22.72-22.63-18.16-49.46-31.96-74.76-12.08,6.76-28.96,32.24-35.16,51.11-49.34C65.23,25.67,57.32,7.19,78.04.09c-1.47,7.41-7.79,16.48-2.11,19.57,7.24,3.94,15.89,3.69,23.5.79,3.03-1.15,4.28-5.44,3.26-8.26l-4.41-12.18c9.01,2.92,15.13,10.1,16.95,19.34,1.54,7.84,5.52,14.52,12.4,18.7l21.8,13.24c4.76,2.89,9.55,6.32,13.66,10.19,6.35,5.97,11,13.11,13.13,23.32ZM61.68,50.44c16.37,12.59,22.21,30.61,26.67,50.05,3.46-15.9,7.78-29.61,17.58-41.48,2.55-3.09,5-6.22,8.44-7.37-9.58,13.92-16.56,27.59-19.23,44.45,20.7-16.58,42.95-31.32,69.78-23.49-12.19-18.83-35.96-22.47-49.27-38.54-1.45,4.52-3.36,8.32-6.41,11.29-5.96,5.79-10.31,11.81-13.93,19.26.42-8.69,4.81-15.9,10.12-22.1,6.55-7.65,7.37-17.68,3.17-26.47-2.77,12.71-18.86,13.29-31.46,10.33-4.58-1.07-7.14-4.67-9.13-9.69-5.47,10.04-1.69,20.54,5.2,28.61,4.62,5.42,7.53,11.97,8.02,19.21-3.26-6.67-6.96-12.47-12.58-17.6-3.8-3.46-6.32-8.33-7.87-12.73-13.44,16.07-37.38,20.11-49.09,38.46,26.87-8.05,48.89,6.95,69.72,23.22-2.91-17.56-10.72-31.95-19.75-45.42Z"></path>
</svg>